<mxfile host="app.diagrams.net" modified="2024-03-04T01:48:09.060Z" agent="Mozilla/5.0 (Macintosh; Intel Mac OS X 10_15_7) AppleWebKit/605.1.15 (KHTML, like Gecko) Version/17.3 Safari/605.1.15" etag="XkuykuzgIDyAPjiRd0dz" version="24.0.1" type="github">
  <diagram name="第 1 页" id="mpfpU_pUy3bu4RIgaBWe">
    <mxGraphModel dx="614" dy="670" grid="0" gridSize="10" guides="1" tooltips="1" connect="1" arrows="1" fold="1" page="0" pageScale="1" pageWidth="827" pageHeight="1169" math="0" shadow="0">
      <root>
        <mxCell id="0" />
        <mxCell id="1" parent="0" />
        <mxCell id="jZPYL-I3miz6CmmET9-g-3" value="" style="edgeStyle=none;curved=1;rounded=0;orthogonalLoop=1;jettySize=auto;html=1;fontSize=12;startSize=8;endSize=8;" edge="1" parent="1" source="jZPYL-I3miz6CmmET9-g-1" target="jZPYL-I3miz6CmmET9-g-2">
          <mxGeometry relative="1" as="geometry" />
        </mxCell>
        <mxCell id="jZPYL-I3miz6CmmET9-g-1" value="Data Storage" style="strokeWidth=2;html=1;shape=mxgraph.flowchart.database;whiteSpace=wrap;" vertex="1" parent="1">
          <mxGeometry x="67" y="140" width="60" height="60" as="geometry" />
        </mxCell>
        <mxCell id="jZPYL-I3miz6CmmET9-g-5" value="" style="edgeStyle=none;curved=1;rounded=0;orthogonalLoop=1;jettySize=auto;html=1;fontSize=12;startSize=8;endSize=8;" edge="1" parent="1" source="jZPYL-I3miz6CmmET9-g-2" target="jZPYL-I3miz6CmmET9-g-4">
          <mxGeometry relative="1" as="geometry" />
        </mxCell>
        <mxCell id="jZPYL-I3miz6CmmET9-g-2" value="Model Training" style="rounded=0;whiteSpace=wrap;html=1;" vertex="1" parent="1">
          <mxGeometry x="177" y="140" width="112" height="59" as="geometry" />
        </mxCell>
        <mxCell id="jZPYL-I3miz6CmmET9-g-9" value="" style="edgeStyle=none;curved=1;rounded=0;orthogonalLoop=1;jettySize=auto;html=1;fontSize=12;startSize=8;endSize=8;" edge="1" parent="1" source="jZPYL-I3miz6CmmET9-g-4" target="jZPYL-I3miz6CmmET9-g-8">
          <mxGeometry relative="1" as="geometry" />
        </mxCell>
        <mxCell id="jZPYL-I3miz6CmmET9-g-4" value="Model Repository" style="rounded=0;whiteSpace=wrap;html=1;" vertex="1" parent="1">
          <mxGeometry x="351" y="140" width="121" height="59" as="geometry" />
        </mxCell>
        <mxCell id="jZPYL-I3miz6CmmET9-g-11" value="" style="edgeStyle=none;curved=1;rounded=0;orthogonalLoop=1;jettySize=auto;html=1;fontSize=12;startSize=8;endSize=8;" edge="1" parent="1" source="jZPYL-I3miz6CmmET9-g-8" target="jZPYL-I3miz6CmmET9-g-10">
          <mxGeometry relative="1" as="geometry" />
        </mxCell>
        <mxCell id="jZPYL-I3miz6CmmET9-g-8" value="Inference Service" style="rounded=0;whiteSpace=wrap;html=1;" vertex="1" parent="1">
          <mxGeometry x="534" y="140" width="121" height="59" as="geometry" />
        </mxCell>
        <mxCell id="jZPYL-I3miz6CmmET9-g-13" value="" style="edgeStyle=none;curved=1;rounded=0;orthogonalLoop=1;jettySize=auto;html=1;fontSize=12;startSize=8;endSize=8;" edge="1" parent="1" source="jZPYL-I3miz6CmmET9-g-10" target="jZPYL-I3miz6CmmET9-g-12">
          <mxGeometry relative="1" as="geometry" />
        </mxCell>
        <mxCell id="jZPYL-I3miz6CmmET9-g-10" value="Monitoring and Evaluation Components" style="rounded=0;whiteSpace=wrap;html=1;" vertex="1" parent="1">
          <mxGeometry x="534" y="278" width="121" height="59" as="geometry" />
        </mxCell>
        <mxCell id="jZPYL-I3miz6CmmET9-g-12" value="CI/CD pipeline" style="rounded=0;whiteSpace=wrap;html=1;" vertex="1" parent="1">
          <mxGeometry x="341" y="274" width="121" height="59" as="geometry" />
        </mxCell>
      </root>
    </mxGraphModel>
  </diagram>
</mxfile>
